<svg width="20" height="20" viewBox="0 0 20 20" fill="none" xmlns="http://www.w3.org/2000/svg">
<path d="M3.3335 9.77137C3.3335 9.45496 3.56862 9.19346 3.87369 9.15208L3.9585 9.14637L14.9452 9.14687L10.976 5.19393C10.7314 4.95038 10.7306 4.55465 10.9741 4.31005C11.1955 4.08768 11.5427 4.06676 11.7878 4.24778L11.858 4.30815L16.8996 9.32815C16.9319 9.36025 16.9599 9.39499 16.9837 9.43169C16.9904 9.44273 16.9972 9.45403 17.0037 9.46555C17.0096 9.47543 17.015 9.48569 17.0201 9.49607C17.0272 9.51116 17.0341 9.52675 17.0403 9.54266C17.0454 9.55492 17.0497 9.56685 17.0535 9.57888C17.0581 9.59379 17.0626 9.60968 17.0665 9.62581C17.0693 9.63708 17.0716 9.64792 17.0736 9.6588C17.0763 9.67499 17.0787 9.69175 17.0804 9.7087C17.0818 9.72164 17.0827 9.73445 17.0832 9.74727C17.0833 9.75505 17.0835 9.76319 17.0835 9.77137L17.0832 9.79558C17.0827 9.80785 17.0819 9.8201 17.0807 9.83233L17.0835 9.77137C17.0835 9.81081 17.0798 9.8494 17.0729 9.88681C17.0712 9.89575 17.0693 9.90492 17.0672 9.91406C17.0627 9.93287 17.0576 9.95099 17.0517 9.96875C17.0488 9.97758 17.0454 9.98701 17.0418 9.99637C17.0345 10.0152 17.0266 10.0331 17.0178 10.0506C17.0138 10.0588 17.0092 10.0674 17.0045 10.0759C16.9967 10.0898 16.9886 10.103 16.9801 10.1158C16.9741 10.1249 16.9674 10.1344 16.9605 10.1437L16.9551 10.1509C16.9383 10.1729 16.92 10.1938 16.9004 10.2133L16.8997 10.2139L11.858 15.2347C11.6134 15.4783 11.2177 15.4775 10.9741 15.2329C10.7527 15.0105 10.7333 14.6633 10.9153 14.419L10.976 14.349L14.9435 10.3969L3.9585 10.3964C3.61332 10.3964 3.3335 10.1165 3.3335 9.77137Z" fill="white"/>
</svg>
