<svg width="18" height="18" viewBox="0 0 18 18" fill="none" xmlns="http://www.w3.org/2000/svg">
<path d="M2.65078 4.71732C3.77862 4.71732 4.69291 3.80303 4.69291 2.67519C4.69291 1.54735 3.77862 0.633057 2.65078 0.633057C1.52294 0.633057 0.608643 1.54735 0.608643 2.67519C0.608643 3.80303 1.52294 4.71732 2.65078 4.71732Z" fill="white"/>
<path d="M6.6212 6.26474V17.5945H10.1389V11.9917C10.1389 10.5133 10.4171 9.08154 12.2501 9.08154C14.058 9.08154 14.0804 10.7718 14.0804 12.085V17.5954H17.6V11.3822C17.6 8.33021 16.9429 5.98474 13.3757 5.98474C11.6631 5.98474 10.5151 6.92461 10.0456 7.81407H9.998V6.26474H6.6212V6.26474ZM0.888672 6.26474H4.412V17.5945H0.888672V6.26474Z" fill="white"/>
</svg>
