<svg width="10" height="10" viewBox="0 0 10 10" fill="none" xmlns="http://www.w3.org/2000/svg">
<path d="M5.19903 0.885376C4.05443 0.885376 2.95671 1.34007 2.14735 2.14943C1.33799 2.95878 0.883301 4.05651 0.883301 5.20111C0.883301 6.34571 1.33799 7.44344 2.14735 8.25279C2.95671 9.06215 4.05443 9.51684 5.19903 9.51684C6.34364 9.51684 7.44136 9.06215 8.25072 8.25279C9.06008 7.44344 9.51477 6.34571 9.51477 5.20111C9.51477 4.05651 9.06008 2.95878 8.25072 2.14943C7.44136 1.34007 6.34364 0.885376 5.19903 0.885376V0.885376ZM5.19903 8.00391C4.45544 8.00391 3.7423 7.70852 3.2165 7.18272C2.69069 6.65691 2.3953 5.94377 2.3953 5.20018C2.3953 4.45658 2.69069 3.74344 3.2165 3.21764C3.7423 2.69184 4.45544 2.39644 5.19903 2.39644C5.94263 2.39644 6.65577 2.69184 7.18157 3.21764C7.70738 3.74344 8.00277 4.45658 8.00277 5.20018C8.00277 5.94377 7.70738 6.65691 7.18157 7.18272C6.65577 7.70852 5.94263 8.00391 5.19903 8.00391V8.00391Z" fill="white"/>
</svg>
