<svg width="18" height="18" viewBox="0 0 18 18" fill="none" xmlns="http://www.w3.org/2000/svg">
<path d="M17.1641 3.70374C16.948 3.14578 16.6178 2.63907 16.1947 2.21606C15.7715 1.79306 15.2647 1.46306 14.7066 1.24721C14.0536 1.00208 13.3637 0.869528 12.6664 0.855209C11.7676 0.816009 11.4829 0.80481 9.20369 0.80481C6.92449 0.80481 6.63235 0.804809 5.74102 0.855209C5.04418 0.868796 4.35479 1.00137 3.70262 1.24721C3.14443 1.46281 2.63747 1.79271 2.21426 2.21576C1.79106 2.6388 1.46097 3.14563 1.24515 3.70374C0.99997 4.35671 0.867726 5.04666 0.854086 5.74401C0.813952 6.64188 0.801819 6.92654 0.801819 9.20668C0.801819 11.4859 0.801819 11.7761 0.854086 12.6693C0.868086 13.3675 0.999685 14.0563 1.24515 14.7105C1.46157 15.2685 1.79199 15.7751 2.21529 16.1981C2.6386 16.621 3.14548 16.9511 3.70355 17.1671C4.35449 17.4221 5.04417 17.5641 5.74289 17.5871C6.64169 17.6263 6.92635 17.6384 9.20555 17.6384C11.4848 17.6384 11.7769 17.6384 12.6682 17.5871C13.3655 17.5729 14.0554 17.4407 14.7085 17.196C15.2664 16.9797 15.7731 16.6494 16.1962 16.2263C16.6193 15.8031 16.9496 15.2964 17.166 14.7385C17.4114 14.0852 17.543 13.3964 17.557 12.6983C17.5972 11.8004 17.6093 11.5157 17.6093 9.23561C17.6093 6.95548 17.6093 6.66614 17.557 5.77294C17.5462 5.06573 17.4132 4.36571 17.1641 3.70374V3.70374ZM16.0273 12.6003C16.0213 13.1382 15.9231 13.671 15.737 14.1757C15.5969 14.5387 15.3823 14.8683 15.1071 15.1433C14.8319 15.4183 14.5022 15.6327 14.1392 15.7727C13.64 15.9579 13.1128 16.0561 12.5805 16.0629C11.6938 16.104 11.4437 16.1143 9.17009 16.1143C6.89462 16.1143 6.66222 16.1143 5.75875 16.0629C5.22669 16.0564 4.69972 15.9582 4.20102 15.7727C3.83673 15.6336 3.50569 15.4196 3.22932 15.1445C2.95295 14.8694 2.7374 14.5394 2.59662 14.1757C2.41317 13.6765 2.31504 13.1499 2.30635 12.618C2.26622 11.7313 2.25689 11.4812 2.25689 9.20761C2.25689 6.93308 2.25689 6.70068 2.30635 5.79628C2.31239 5.2587 2.41056 4.72613 2.59662 4.22174C2.88129 3.48534 3.46462 2.90574 4.20102 2.62388C4.69997 2.43921 5.22678 2.34104 5.75875 2.33361C6.64635 2.29348 6.89555 2.28228 9.17009 2.28228C11.4446 2.28228 11.678 2.28228 12.5805 2.33361C13.1129 2.34001 13.6402 2.43821 14.1392 2.62388C14.5022 2.76413 14.8318 2.97873 15.107 3.2539C15.3822 3.52908 15.5968 3.85874 15.737 4.22174C15.9205 4.72103 16.0186 5.24763 16.0273 5.77948C16.0674 6.66708 16.0777 6.91628 16.0777 9.19081C16.0777 11.4644 16.0777 11.7089 16.0376 12.6012H16.0273V12.6003Z" fill="white"/>
</svg>
