<svg width="32" height="33" viewBox="0 0 32 33" fill="none" xmlns="http://www.w3.org/2000/svg">
<path fill-rule="evenodd" clip-rule="evenodd" d="M19.8626 3.78974C20.4146 3.78974 20.8626 4.23785 20.8626 4.78997C20.8626 5.3421 20.4146 5.7902 19.8626 5.7902H10.1719C6.82788 5.7902 4.66655 8.08938 4.66655 11.6502V22.4286C4.66655 26.0361 6.77588 28.2766 10.1719 28.2766H21.6439C24.9879 28.2766 27.1492 25.9814 27.1492 22.4286V13.0412C27.1492 12.489 27.5972 12.0409 28.1492 12.0409C28.7012 12.0409 29.1492 12.489 29.1492 13.0412V22.4286C29.1492 27.123 26.1332 30.2771 21.6439 30.2771H10.1719C5.68255 30.2771 2.66655 27.123 2.66655 22.4286V11.6502C2.66655 6.94913 5.68255 3.78974 10.1719 3.78974H19.8626ZM22.6831 12.8982C23.1204 13.2369 23.2004 13.8651 22.8618 14.3012L18.9551 19.3423C18.7924 19.553 18.5524 19.6904 18.2884 19.7224C18.0218 19.7584 17.7578 19.6811 17.5471 19.517L13.7898 16.5644L10.4151 20.9507C10.2178 21.2067 9.92175 21.3414 9.62175 21.3414C9.40842 21.3414 9.19375 21.2734 9.01242 21.1347C8.57508 20.7973 8.49242 20.1692 8.82975 19.7317L12.8204 14.5439C12.9831 14.3319 13.2244 14.1945 13.4884 14.1612C13.7578 14.1265 14.0218 14.2012 14.2311 14.3679L17.9911 17.3219L21.2804 13.0769C21.6191 12.6381 22.2458 12.5568 22.6831 12.8982ZM26.6231 2.66669C28.5884 2.66669 30.1858 4.26439 30.1858 6.23016C30.1858 8.19594 28.5884 9.79497 26.6231 9.79497C24.6591 9.79497 23.0604 8.19594 23.0604 6.23016C23.0604 4.26439 24.6591 2.66669 26.6231 2.66669ZM26.6231 4.66714C25.7618 4.66714 25.0604 5.3673 25.0604 6.23016C25.0604 7.09169 25.7618 7.79452 26.6231 7.79452C27.4844 7.79452 28.1858 7.09169 28.1858 6.23016C28.1858 5.3673 27.4844 4.66714 26.6231 4.66714Z" fill="#FE390C"/>
</svg>
